<svg width="265" height="193" viewBox="0 0 265 193" fill="none" xmlns="http://www.w3.org/2000/svg">
<g clip-path="url(#clip0_50_22)">
<path d="M238.429 67.8866H238.149C235.102 67.8832 232.18 66.6703 230.025 64.5141C227.871 62.3579 226.659 59.4345 226.655 56.3852V52.4579H192.455V51.8968H227.216V56.3852C227.219 59.2372 228.334 61.9754 230.323 64.0178C232.313 66.0601 235.019 67.2455 237.868 67.322V51.8968H245.998C247.113 51.8955 248.182 51.4518 248.97 50.663C249.758 49.8741 250.202 48.8046 250.203 47.689V4.7689C250.202 3.65329 249.758 2.58374 248.97 1.79489C248.182 1.00604 247.113 0.562309 245.998 0.561047H138.911C137.796 0.562309 136.727 1.00604 135.939 1.79489C135.151 2.58374 134.707 3.65329 134.706 4.7689V35.907H134.145V4.7689C134.147 3.50454 134.649 2.29238 135.543 1.39835C136.436 0.504316 137.648 0.00142334 138.911 0H245.998C247.262 0.00142334 248.473 0.504316 249.366 1.39835C250.26 2.29238 250.762 3.50454 250.764 4.7689V47.689C250.762 48.9533 250.26 50.1655 249.366 51.0595C248.473 51.9535 247.262 52.4564 245.998 52.4579H238.429V67.8866Z" fill="#CCCCCC"/>
<path d="M228.332 14.1693C228.296 13.2642 227.912 12.4079 227.26 11.7798C226.608 11.1518 225.738 10.8007 224.833 10.8002H160.076C159.147 10.8002 158.256 11.1696 157.598 11.8272C156.941 12.4848 156.572 13.3767 156.572 14.3067C156.572 15.2367 156.941 16.1286 157.598 16.7862C158.256 17.4438 159.147 17.8133 160.076 17.8133H224.833C225.762 17.812 226.652 17.4421 227.309 16.7848C227.966 16.1275 228.336 15.2363 228.337 14.3067C228.338 14.2608 228.336 14.2149 228.332 14.1693Z" fill="#CCCCCC"/>
<path d="M228.332 25.9512C228.296 25.0462 227.912 24.1899 227.26 23.5618C226.608 22.9338 225.738 22.5827 224.833 22.5822H160.076C159.147 22.5822 158.256 22.9516 157.598 23.6092C156.941 24.2668 156.572 25.1587 156.572 26.0887C156.572 27.0187 156.941 27.9106 157.598 28.5682C158.256 29.2258 159.147 29.5952 160.076 29.5952H224.833C225.762 29.594 226.652 29.2241 227.309 28.5668C227.966 27.9094 228.336 27.0183 228.337 26.0887C228.338 26.0428 228.336 25.9969 228.332 25.9512Z" fill="#CCCCCC"/>
<path d="M228.332 37.7332C228.296 36.8281 227.912 35.9719 227.26 35.3438C226.608 34.7157 225.738 34.3647 224.833 34.3641H160.076C159.563 34.3642 159.055 34.4772 158.59 34.6954C158.125 34.9136 157.714 35.2314 157.385 35.6265C157.241 35.8013 157.113 35.9891 157.004 36.1875H187.969C189.084 36.1889 190.153 36.6327 190.941 37.4215C191.729 38.2103 192.173 39.2798 192.174 40.3954V41.3772H224.833C225.762 41.3759 226.652 41.0061 227.309 40.3488C227.966 39.6914 228.336 38.8003 228.337 37.8707C228.338 37.8248 228.336 37.7789 228.332 37.7332Z" fill="#CCCCCC"/>
<path d="M7.37307 192.076C7.52557 192.201 7.67814 192.321 7.83427 192.439H46.3531C46.64 192.321 46.9257 192.2 47.2101 192.076C51.2765 190.305 55.0614 187.947 58.444 185.077C60.6901 183.172 62.7563 181.207 64.2543 179.364C66.3442 176.793 68.2688 173.991 69.1641 170.799C70.0574 167.607 69.7905 163.947 67.795 161.3C67.1771 160.486 66.4174 159.789 65.5525 159.245C65.4091 159.154 65.2639 159.067 65.115 158.985C62.6324 157.648 59.7364 157.299 57.0077 158.009C53.1493 159.007 49.9428 161.792 47.655 165.059C45.3671 168.324 43.8818 172.074 42.4184 175.783C40.9332 169.164 36.4356 163.235 30.3602 160.221C24.2865 157.206 16.7404 157.243 10.7957 160.508C8.92527 161.541 7.23566 162.873 5.79336 164.451C5.65 164.605 5.51009 164.763 5.37214 164.923C2.47248 168.282 0.658526 172.585 0.509666 177.022C0.44274 179.887 1.02554 182.73 2.21428 185.337C3.40303 187.945 5.16679 190.248 7.37307 192.076Z" fill="#F2F2F2"/>
<path d="M44.8134 192.439H45.3581C45.3653 192.317 45.3744 192.197 45.3853 192.076C45.5757 189.699 45.9743 187.344 46.5764 185.037C47.9579 179.77 50.3177 174.811 53.5325 170.417C56.7381 166.01 60.7792 162.277 65.4255 159.432C65.4595 159.413 65.4886 159.386 65.5106 159.353C65.5326 159.321 65.547 159.284 65.5525 159.245C65.5614 159.194 65.5557 159.142 65.5361 159.094C65.5165 159.047 65.4837 159.006 65.4417 158.976C65.3996 158.946 65.35 158.929 65.2986 158.926C65.2471 158.924 65.1961 158.936 65.1513 158.961C65.1388 158.969 65.1267 158.977 65.115 158.985C62.4826 160.591 60.039 162.487 57.8303 164.639C53.8794 168.496 50.6936 173.066 48.4412 178.109C46.454 182.525 45.2368 187.249 44.8424 192.076C44.8315 192.197 44.8224 192.319 44.8134 192.439Z" fill="white"/>
<path d="M5.37213 164.923C5.37607 164.925 5.38038 164.926 5.38481 164.927C5.78244 164.999 6.18194 165.076 6.5778 165.157C9.82707 165.825 13.0078 166.791 16.0795 168.044C19.1431 169.296 22.09 170.816 24.8858 172.587C27.6851 174.357 30.3248 176.368 32.7751 178.597C35.2253 180.823 37.4729 183.263 39.4915 185.887C41.0001 187.853 42.3718 189.921 43.5968 192.076C43.6657 192.195 43.733 192.317 43.8002 192.439H44.4229C44.3576 192.317 44.2904 192.195 44.2214 192.076C42.7394 189.435 41.04 186.924 39.141 184.566C37.041 181.957 34.7131 179.54 32.1849 177.344C29.6729 175.16 26.9768 173.197 24.1268 171.478C21.2649 169.753 18.256 168.284 15.1353 167.089C12.1069 165.93 8.98022 165.047 5.79334 164.45C5.70442 164.434 5.61727 164.418 5.52826 164.401C5.18878 164.34 5.04347 164.852 5.37213 164.923Z" fill="white"/>
<path d="M16.2037 183.89C19.9968 183.368 23.8489 183.455 27.6147 184.147C31.3695 184.834 34.9943 186.103 38.3588 187.906C40.2496 188.923 42.0442 190.11 43.7205 191.451C43.9943 191.67 43.6067 192.054 43.3353 191.837C40.394 189.495 37.0968 187.641 33.569 186.343C30.0692 185.048 26.3906 184.301 22.663 184.129C20.5539 184.032 18.4403 184.128 16.3485 184.416C16.279 184.432 16.2057 184.422 16.1435 184.387C16.0813 184.351 16.0348 184.294 16.0135 184.225C15.9947 184.156 16.0042 184.081 16.0398 184.019C16.0754 183.956 16.1343 183.91 16.2037 183.89Z" fill="white"/>
<path d="M187.689 36.1875H80.6019C79.3386 36.1893 78.1274 36.6923 77.2341 37.5863C76.3407 38.4802 75.8381 39.6922 75.8363 40.9564V83.8765C75.8381 85.1407 76.3407 86.3526 77.2341 87.2466C78.1274 88.1405 79.3386 88.6436 80.6019 88.6454H88.1709V104.074H88.4512C91.4986 104.071 94.4201 102.858 96.5749 100.702C98.7297 98.5456 99.9417 95.6221 99.9449 92.5727V88.6454H187.689C188.952 88.6436 190.163 88.1405 191.057 87.2466C191.95 86.3526 192.453 85.1407 192.455 83.8765V40.9564C192.453 39.6922 191.95 38.4802 191.057 37.5863C190.163 36.6923 188.952 36.1893 187.689 36.1875ZM191.894 83.8765C191.893 84.992 191.449 86.0615 190.661 86.8504C189.872 87.6392 188.804 88.0829 187.689 88.0843H99.3842V92.5727C99.3804 95.4246 98.2654 98.1626 96.2762 100.205C94.2871 102.247 91.5805 103.433 88.7316 103.51V88.0843H80.6019C79.4871 88.0829 78.4184 87.6392 77.6301 86.8504C76.8418 86.0615 76.3983 84.992 76.397 83.8765V40.9564C76.3983 39.8408 76.8418 38.7713 77.6301 37.9825C78.4184 37.1937 79.4871 36.7499 80.6019 36.7485H187.689C188.804 36.7499 189.872 37.1937 190.661 37.9825C191.449 38.7713 191.893 39.8408 191.894 40.9564V83.8765Z" fill="#3F3D56"/>
<path d="M166.524 46.9877H101.767C100.862 46.9882 99.9921 47.3393 99.3399 47.9673C98.6877 48.5954 98.3037 49.4517 98.2685 50.3568C98.2638 50.4024 98.2619 50.4483 98.2629 50.4942C98.2642 51.4238 98.6338 52.3149 99.2907 52.9723C99.9475 53.6296 100.838 53.9994 101.767 54.0008H166.524C167.453 54.0008 168.344 53.6313 169.002 52.9737C169.659 52.3161 170.028 51.4242 170.028 50.4942C170.028 49.5642 169.659 48.6723 169.002 48.0147C168.344 47.3571 167.453 46.9877 166.524 46.9877Z" fill="#FEEE74"/>
<path d="M166.524 58.7697H101.767C100.862 58.7702 99.9921 59.1213 99.3399 59.7493C98.6877 60.3774 98.3037 61.2337 98.2685 62.1387C98.2638 62.1844 98.2619 62.2303 98.2629 62.2762C98.2642 63.2058 98.6338 64.0969 99.2907 64.7542C99.9475 65.4116 100.838 65.7814 101.767 65.7827H166.524C167.453 65.7827 168.344 65.4133 169.002 64.7557C169.659 64.0981 170.028 63.2062 170.028 62.2762C170.028 61.3462 169.659 60.4543 169.002 59.7967C168.344 59.1391 167.453 58.7697 166.524 58.7697Z" fill="#FEEE74"/>
<path d="M166.524 70.5516H101.767C100.862 70.5522 99.9921 70.9032 99.3399 71.5313C98.6877 72.1594 98.3037 73.0157 98.2685 73.9207C98.2638 73.9664 98.2619 74.0123 98.2629 74.0582C98.2642 74.9878 98.6338 75.8789 99.2907 76.5362C99.9475 77.1936 100.838 77.5634 101.767 77.5647H166.524C167.453 77.5647 168.344 77.1953 169.002 76.5377C169.659 75.8801 170.028 74.9882 170.028 74.0582C170.028 73.1282 169.659 72.2363 169.002 71.5787C168.344 70.9211 167.453 70.5516 166.524 70.5516Z" fill="#FEEE74"/>
<path d="M63.498 132.609C63.3718 132.609 63.2457 132.601 63.1204 132.585C62.6891 132.532 62.2738 132.389 61.9018 132.164C61.5298 131.939 61.2094 131.638 60.9616 131.281C60.7139 130.924 60.5444 130.518 60.4643 130.091C60.3841 129.663 60.3951 129.224 60.4966 128.801C60.5206 128.703 60.5497 128.606 60.5836 128.511L51.2304 116.528C50.8186 115.997 50.5892 115.346 50.576 114.674C50.5629 114.001 50.7668 113.343 51.1575 112.795L54.4337 108.242L58.7159 111.548L56.9956 114.505L63.8084 126.455C63.9454 126.468 64.0813 126.49 64.2152 126.521C64.9492 126.698 65.5931 127.137 66.0248 127.757C66.4565 128.377 66.6461 129.133 66.5578 129.884C66.4694 130.634 66.1091 131.326 65.5452 131.828C64.9813 132.33 64.2529 132.608 63.498 132.609Z" fill="#A0616A"/>
<path d="M79.6847 189.386L83.1215 189.386L84.7564 176.121L79.6841 176.121L79.6847 189.386Z" fill="#A0616A"/>
<path d="M89.7497 192.579L78.9483 192.58L78.9481 188.404L85.5762 188.403C86.1243 188.403 86.6669 188.511 87.1733 188.721C87.6796 188.931 88.1397 189.239 88.5272 189.626C88.9148 190.014 89.2222 190.474 89.4319 190.981C89.6417 191.488 89.7496 192.031 89.7497 192.579Z" fill="#2F2E41"/>
<path d="M51.3711 189.386L54.808 189.386L56.4429 176.121L51.3705 176.121L51.3711 189.386Z" fill="#A0616A"/>
<path d="M61.4361 192.579L50.6347 192.58L50.6345 188.404L57.2627 188.403C57.8107 188.403 58.3534 188.511 58.8597 188.721C59.366 188.931 59.8261 189.239 60.2137 189.626C60.6012 190.014 60.9086 190.474 61.1184 190.981C61.3281 191.488 61.4361 192.031 61.4361 192.579Z" fill="#2F2E41"/>
<path d="M53.4805 108.888L61.1965 111.822L63.0803 106.585C63.3305 105.89 63.327 105.129 63.0704 104.436C62.8138 103.743 62.3206 103.163 61.6781 102.798C61.0282 102.43 60.2679 102.306 59.5347 102.449C58.8015 102.593 58.1436 102.993 57.6799 103.58L53.4805 108.888Z" fill="#FEEE74"/>
<path d="M79.0737 178.678C78.7656 178.678 78.4663 178.575 78.2231 178.385C77.9799 178.196 77.8065 177.931 77.7302 177.633C73.8824 162.902 69.9756 155.519 65.7862 146.981C65.6815 146.768 65.5116 146.594 65.3013 146.485C65.091 146.375 64.8512 146.335 64.6168 146.372C64.3825 146.408 64.1657 146.518 63.9982 146.686C63.8306 146.854 63.721 147.071 63.6852 147.305L58.4924 177.335C58.4405 177.67 58.2687 177.975 58.0091 178.192C57.7494 178.41 57.4195 178.526 57.0808 178.518L49.3713 178.33C49.1842 178.326 48.9999 178.285 48.8294 178.207C48.659 178.13 48.5059 178.019 48.3796 177.881C48.2461 177.749 48.144 177.588 48.0807 177.411C48.0175 177.234 47.9947 177.045 48.0141 176.858C51.5059 153.814 54.2552 132.956 59.5422 126.593C59.6888 126.454 59.8568 126.339 60.0398 126.254L59.8794 126.229C59.8335 126.222 59.7114 126.204 59.7099 126.081L59.7084 125.962L59.829 125.939C60.0215 125.932 60.2137 125.961 60.3957 126.025L72.4624 127.883C72.7967 127.934 73.1008 128.106 73.3182 128.365C73.5355 128.624 73.6512 128.954 73.6437 129.292C74.2998 132.363 75.305 136.999 75.395 137.227C81.833 149.475 84.3312 159.12 86.9279 175.589C86.9816 175.938 86.9013 176.295 86.7031 176.587C86.5049 176.88 86.2034 177.086 85.8593 177.165L79.3879 178.642C79.2848 178.666 79.1794 178.678 79.0737 178.678Z" fill="#2F2E41"/>
<path d="M72.302 129.891C72.1937 129.891 72.0858 129.878 71.9805 129.853L60.1004 127.025C59.9184 126.983 59.7469 126.903 59.5967 126.792C59.4465 126.68 59.3207 126.539 59.227 126.377C59.1304 126.21 59.0686 126.025 59.0453 125.833C59.022 125.641 59.0376 125.446 59.0913 125.26C60.3724 120.816 58.6926 115.306 56.6865 110.015C56.4313 108.467 56.6812 106.879 57.3993 105.485C58.1173 104.091 59.2651 102.965 60.6726 102.276L60.7049 102.26L66.9422 102.575C67.9663 102.844 68.9163 103.341 69.7207 104.03C70.5251 104.719 71.163 105.582 71.5864 106.553C73.9904 112.183 74.6788 119.408 73.6905 128.64C73.6542 128.983 73.4923 129.301 73.236 129.532C72.9796 129.763 72.647 129.891 72.302 129.891Z" fill="#FEEE74"/>
<path d="M73.9002 117.039C73.2661 117.04 72.6474 116.844 72.1304 116.476L67.529 113.194L70.8119 108.893L73.7755 110.601L85.6845 103.726C85.6964 103.589 85.7178 103.452 85.7487 103.318C85.8882 102.724 86.2007 102.185 86.6466 101.768C87.0925 101.352 87.6518 101.077 88.2537 100.979C88.8556 100.881 89.4732 100.963 90.0282 101.216C90.5833 101.469 91.051 101.881 91.3721 102.4C91.6932 102.919 91.8534 103.521 91.8323 104.131C91.8112 104.741 91.6099 105.331 91.2538 105.826C90.8976 106.322 90.4027 106.7 89.8315 106.914C89.2603 107.128 88.6385 107.168 88.0448 107.028C87.9466 107.005 87.8497 106.976 87.7544 106.943L75.7914 116.387C75.2521 116.811 74.586 117.04 73.9002 117.039Z" fill="#A0616A"/>
<path d="M66.0692 114.534L72.8949 109.889L69.6871 105.342C69.2612 104.739 68.6357 104.305 67.9211 104.118C67.2066 103.931 66.4491 104.003 65.7825 104.321C65.1081 104.643 64.5709 105.195 64.2678 105.879C63.9648 106.562 63.916 107.331 64.1301 108.047L66.0692 114.534Z" fill="#FEEE74"/>
<path d="M62.7865 99.9287C66.5891 99.9287 69.6717 96.8439 69.6717 93.0387C69.6717 89.2335 66.5891 86.1488 62.7865 86.1488C58.9839 86.1488 55.9012 89.2335 55.9012 93.0387C55.9012 96.8439 58.9839 99.9287 62.7865 99.9287Z" fill="#A0616A"/>
<path d="M63.4174 100.088C62.3839 100.083 61.5867 98.9947 61.6331 97.9616C61.6794 96.9285 62.3728 96.0196 63.2082 95.4108C64.0435 94.8021 65.0232 94.4313 65.9548 93.9837C66.8865 93.5361 67.8099 92.9779 68.3851 92.1187C68.7326 91.5564 68.94 90.9188 68.9899 90.2596C69.0399 89.6003 68.9308 88.9387 68.672 88.3304C68.1367 87.1138 67.2177 86.1064 66.0556 85.4623C64.3294 84.4512 62.2859 84.1279 60.3321 84.5568C58.3784 84.9857 56.6578 86.1353 55.5131 87.7767L54.3335 90.9909C53.1314 92.4374 52.9408 94.5854 53.6797 96.3152C54.4186 98.045 55.9919 99.3465 57.7672 99.9652C59.5685 100.544 61.4967 100.602 63.3293 100.132" fill="#2F2E41"/>
<path d="M55.9778 89.7721C55.5061 89.0443 54.8627 88.4438 54.1043 88.0235C53.346 87.6033 52.496 87.3762 51.6292 87.3623C50.7624 87.3483 49.9056 87.548 49.1341 87.9437C48.3627 88.3394 47.7004 88.9189 47.2056 89.6312C46.3773 90.8235 46.0765 92.2933 45.507 93.6289C44.4755 96.0207 42.5996 97.9485 40.2377 99.0438C42.3058 99.4077 44.3661 98.3549 46.0195 97.0596C47.6729 95.7643 49.127 94.1832 50.9787 93.1924C52.4354 92.4157 54.0719 92.0396 55.7213 92.1024" fill="#2F2E41"/>
<path d="M113.932 193H7.12504C7.05069 193 6.97939 192.97 6.92682 192.918C6.87425 192.865 6.84471 192.794 6.84471 192.719C6.84471 192.645 6.87425 192.574 6.92682 192.521C6.97939 192.469 7.05069 192.439 7.12504 192.439H113.932C114.006 192.439 114.077 192.469 114.13 192.521C114.182 192.574 114.212 192.645 114.212 192.719C114.212 192.794 114.182 192.865 114.13 192.918C114.077 192.97 114.006 193 113.932 193Z" fill="#3F3D56"/>
<path d="M247.96 102.672C257.095 102.672 264.5 95.2615 264.5 86.1207C264.5 76.9799 257.095 69.5698 247.96 69.5698C238.826 69.5698 231.421 76.9799 231.421 86.1207C231.421 95.2615 238.826 102.672 247.96 102.672Z" fill="#E6E6E6"/>
<path d="M249.538 97.9173C248.864 97.8985 248.026 97.8749 247.38 97.4031C247.188 97.2567 247.03 97.0701 246.917 96.8562C246.805 96.6424 246.74 96.4064 246.728 96.165C246.717 95.9934 246.745 95.8214 246.811 95.6626C246.876 95.5037 246.978 95.3621 247.107 95.249C247.3 95.1053 247.525 95.0121 247.763 94.9778C248 94.9436 248.243 94.9694 248.468 95.053L247.918 91.0314L248.322 90.9761L248.968 95.704L248.631 95.5492C248.24 95.3698 247.704 95.2786 247.37 95.5604C247.288 95.6341 247.225 95.7257 247.184 95.828C247.143 95.9304 247.127 96.0407 247.136 96.1506C247.145 96.3303 247.194 96.5057 247.278 96.6651C247.361 96.8244 247.478 96.9638 247.621 97.0737C248.123 97.4411 248.791 97.4885 249.549 97.5098L249.538 97.9173Z" fill="#3F3D56"/>
<path d="M245.922 91.3783H243.727V91.786H245.922V91.3783Z" fill="#3F3D56"/>
<path d="M252.849 91.3783H250.654V91.786H252.849V91.3783Z" fill="#3F3D56"/>
<path d="M239.914 85.7477C238.147 85.5461 236.778 83.8517 236.628 82.1325C236.449 80.0872 237.639 78.1446 239.272 76.9969C240.98 75.7967 243.108 75.2955 245.167 75.1851C249.182 74.9851 253.129 76.2869 256.239 78.8372C257.782 80.1193 259.222 81.7524 259.768 83.725C260.243 85.4381 259.857 87.3788 258.48 88.5786C258.139 88.8726 257.741 89.0928 257.311 89.2253C256.882 89.3577 256.429 89.3996 255.982 89.3482C254.914 89.2372 253.928 88.675 253.075 88.0542C251.415 86.8466 250.052 85.1643 248.03 84.5332C246.547 84.0705 244.623 84.4778 243.717 85.8195C243.512 86.1267 243.378 86.4765 243.327 86.8427C243.309 86.9208 243.32 87.0031 243.36 87.0729C243.4 87.1428 243.464 87.195 243.541 87.2189C243.619 87.2399 243.702 87.2293 243.773 87.1894C243.843 87.1494 243.895 87.0832 243.917 87.0053C244.155 85.3153 246.231 84.6847 247.689 85.0707C249.813 85.6334 251.239 87.5306 252.983 88.736C253.885 89.4093 254.948 89.8339 256.066 89.9674C257.035 90.0435 257.996 89.7478 258.756 89.1405C260.245 87.9637 260.814 85.9398 260.485 84.1175C260.104 82.0074 258.684 80.1988 257.127 78.7986C253.97 75.9901 249.871 74.4749 245.648 74.5552C243.494 74.6047 241.246 75.0497 239.39 76.189C237.59 77.2942 236.199 79.1432 236.017 81.2924C235.857 83.1841 236.871 85.1628 238.612 85.9915C239.022 86.1861 239.463 86.3104 239.914 86.3594C240.304 86.4039 240.301 85.7919 239.914 85.7477Z" fill="#3F3D56"/>
</g>
<defs>
<clipPath id="clip0_50_22">
<rect width="264" height="193" fill="white" transform="translate(0.5)"/>
</clipPath>
</defs>
</svg>
