<svg width="20" height="20" viewBox="0 0 20 20" fill="none" xmlns="http://www.w3.org/2000/svg">
<path d="M9.99996 1.66669C8.35179 1.66669 6.74062 2.15543 5.37021 3.07111C3.9998 3.98679 2.9317 5.28827 2.30097 6.81099C1.67024 8.33371 1.50521 10.0093 1.82675 11.6258C2.1483 13.2423 2.94197 14.7271 4.10741 15.8926C5.27284 17.058 6.7577 17.8517 8.37421 18.1732C9.99072 18.4948 11.6663 18.3297 13.189 17.699C14.7117 17.0683 16.0132 16.0002 16.9289 14.6298C17.8446 13.2594 18.3333 11.6482 18.3333 10C18.3308 7.79064 17.4521 5.67245 15.8898 4.11018C14.3275 2.54791 12.2093 1.66914 9.99996 1.66669ZM9.99996 16.6667C8.68142 16.6667 7.39249 16.2757 6.29616 15.5432C5.19983 14.8106 4.34535 13.7694 3.84077 12.5512C3.33618 11.3331 3.20416 9.99263 3.46139 8.69942C3.71863 7.40621 4.35357 6.21833 5.28592 5.28598C6.21827 4.35363 7.40615 3.71869 8.69936 3.46145C9.99257 3.20422 11.333 3.33624 12.5512 3.84082C13.7694 4.34541 14.8105 5.19989 15.5431 6.29622C16.2756 7.39255 16.6666 8.68148 16.6666 10C16.6646 11.7675 15.9616 13.462 14.7118 14.7118C13.462 15.9616 11.7675 16.6647 9.99996 16.6667ZM9.99996 9.58335C9.77895 9.58335 9.56699 9.67115 9.41071 9.82743C9.25443 9.98371 9.16663 10.1957 9.16663 10.4167V12.9167C9.16663 13.1377 9.25443 13.3497 9.41071 13.5059C9.56699 13.6622 9.77895 13.75 9.99996 13.75C10.221 13.75 10.4329 13.6622 10.5892 13.5059C10.7455 13.3497 10.8333 13.1377 10.8333 12.9167V10.4167C10.8333 10.1957 10.7455 9.98371 10.5892 9.82743C10.4329 9.67115 10.221 9.58335 9.99996 9.58335ZM9.99996 6.25002C9.79394 6.25002 9.59255 6.31111 9.42124 6.42557C9.24994 6.54003 9.11643 6.70272 9.03759 6.89306C8.95875 7.0834 8.93812 7.29284 8.97831 7.49491C9.0185 7.69697 9.11771 7.88258 9.26339 8.02826C9.40907 8.17394 9.59468 8.27315 9.79674 8.31334C9.99881 8.35353 10.2083 8.3329 10.3986 8.25406C10.5889 8.17522 10.7516 8.04171 10.8661 7.87041C10.9805 7.69911 11.0416 7.49771 11.0416 7.29169C11.0416 7.01542 10.9319 6.75047 10.7365 6.55512C10.5412 6.35977 10.2762 6.25002 9.99996 6.25002Z" fill="#888888"/>
</svg>
