<svg width="21" height="20" viewBox="0 0 21 20" fill="none" xmlns="http://www.w3.org/2000/svg">
<path d="M17.1938 16.6625H3.80627C3.10205 16.6617 2.4269 16.3816 1.92894 15.8836C1.43097 15.3856 1.15085 14.7105 1.15002 14.0063V5.99377C1.15085 5.28955 1.43097 4.6144 1.92894 4.11644C2.4269 3.61847 3.10205 3.33835 3.80627 3.33752H17.1938C17.898 3.33835 18.5732 3.61847 19.0711 4.11644C19.5691 4.6144 19.8492 5.28955 19.85 5.99377V14.0063C19.8492 14.7105 19.5691 15.3856 19.0711 15.8836C18.5732 16.3816 17.898 16.6617 17.1938 16.6625ZM3.80627 4.27502C3.35043 4.27502 2.91326 4.45611 2.59093 4.77843C2.26861 5.10076 2.08752 5.53793 2.08752 5.99377V14.0063C2.08752 14.4621 2.26861 14.8993 2.59093 15.2216C2.91326 15.5439 3.35043 15.725 3.80627 15.725H17.1938C17.6496 15.725 18.0868 15.5439 18.4091 15.2216C18.7314 14.8993 18.9125 14.4621 18.9125 14.0063V5.99377C18.9125 5.53793 18.7314 5.10076 18.4091 4.77843C18.0868 4.45611 17.6496 4.27502 17.1938 4.27502H3.80627Z" fill="#888888"/>
<path d="M10.5 11.8999C9.92172 11.9009 9.35892 11.7133 8.89686 11.3656L1.59998 5.84682C1.54843 5.81064 1.50469 5.76443 1.47139 5.71097C1.43809 5.65751 1.4159 5.59788 1.40616 5.53566C1.39641 5.47343 1.39931 5.40988 1.41467 5.34879C1.43004 5.28771 1.45755 5.23035 1.49558 5.18014C1.53361 5.12992 1.58136 5.08789 1.636 5.05655C1.69063 5.0252 1.75102 5.00519 1.81356 4.99771C1.8761 4.99022 1.9395 4.99542 1.99999 5.01298C2.06048 5.03055 2.1168 5.06012 2.16561 5.09994L9.46248 10.6249C9.76213 10.8486 10.126 10.9695 10.5 10.9695C10.8739 10.9695 11.2378 10.8486 11.5375 10.6249L18.8344 5.09994C18.8832 5.06012 18.9395 5.03055 19 5.01298C19.0605 4.99542 19.1239 4.99022 19.1864 4.99771C19.2489 5.00519 19.3093 5.0252 19.364 5.05655C19.4186 5.08789 19.4664 5.12992 19.5044 5.18014C19.5424 5.23035 19.5699 5.28771 19.5853 5.34879C19.6007 5.40988 19.6036 5.47343 19.5938 5.53566C19.5841 5.59788 19.5619 5.65751 19.5286 5.71097C19.4953 5.76443 19.4515 5.81064 19.4 5.84682L12.1031 11.3656C11.641 11.7133 11.0782 11.9009 10.5 11.8999Z" fill="#888888"/>
<path d="M1.80318 15.3562C1.70811 15.3564 1.61524 15.3276 1.5369 15.2737C1.45856 15.2199 1.39846 15.1435 1.36456 15.0546C1.33065 14.9658 1.32456 14.8688 1.34709 14.7764C1.36961 14.6841 1.41969 14.6007 1.49068 14.5375L7.24068 9.40937C7.3335 9.32649 7.45545 9.28388 7.5797 9.29091C7.70394 9.29794 7.8203 9.35404 7.90318 9.44687C7.98606 9.5397 8.02867 9.66164 8.02164 9.78589C8.01461 9.91013 7.9585 10.0265 7.86568 10.1094L2.11568 15.2375C2.03029 15.3152 1.91862 15.3576 1.80318 15.3562ZM19.1969 15.3562C19.0815 15.3576 18.9698 15.3152 18.8844 15.2375L13.1344 10.1094C13.0416 10.0265 12.9855 9.91013 12.9785 9.78589C12.9714 9.66164 13.014 9.5397 13.0969 9.44687C13.1798 9.35404 13.2962 9.29794 13.4204 9.29091C13.5447 9.28388 13.6666 9.32649 13.7594 9.40937L19.5063 14.5375C19.5773 14.6007 19.6274 14.6841 19.6499 14.7764C19.6724 14.8688 19.6663 14.9658 19.6324 15.0546C19.5985 15.1435 19.5384 15.2199 19.4601 15.2737C19.3817 15.3276 19.2889 15.3564 19.1938 15.3562H19.1969Z" fill="#888888"/>
</svg>
