<svg width="21" height="20" viewBox="0 0 21 20" fill="none" xmlns="http://www.w3.org/2000/svg">
<path d="M10.5 10.8333C10.2463 10.8303 9.9978 10.9052 9.78791 11.0477C9.57801 11.1903 9.41683 11.3937 9.32605 11.6306C9.23527 11.8676 9.21926 12.1266 9.28016 12.3729C9.34107 12.6192 9.47597 12.841 9.66671 13.0083V14.1666C9.66671 14.3876 9.7545 14.5996 9.91078 14.7559C10.0671 14.9122 10.279 15 10.5 15C10.7211 15 10.933 14.9122 11.0893 14.7559C11.2456 14.5996 11.3334 14.3876 11.3334 14.1666V13.0083C11.5241 12.841 11.659 12.6192 11.7199 12.3729C11.7808 12.1266 11.7648 11.8676 11.674 11.6306C11.5833 11.3937 11.4221 11.1903 11.2122 11.0477C11.0023 10.9052 10.7537 10.8303 10.5 10.8333ZM14.6667 7.49996V5.83329C14.6667 4.72822 14.2277 3.66842 13.4463 2.88701C12.6649 2.10561 11.6051 1.66663 10.5 1.66663C9.39497 1.66663 8.33516 2.10561 7.55376 2.88701C6.77236 3.66842 6.33337 4.72822 6.33337 5.83329V7.49996C5.67033 7.49996 5.03445 7.76335 4.56561 8.23219C4.09677 8.70103 3.83337 9.33692 3.83337 9.99996V15.8333C3.83337 16.4963 4.09677 17.1322 4.56561 17.6011C5.03445 18.0699 5.67033 18.3333 6.33337 18.3333H14.6667C15.3297 18.3333 15.9656 18.0699 16.4345 17.6011C16.9033 17.1322 17.1667 16.4963 17.1667 15.8333V9.99996C17.1667 9.33692 16.9033 8.70103 16.4345 8.23219C15.9656 7.76335 15.3297 7.49996 14.6667 7.49996ZM8.00004 5.83329C8.00004 5.17025 8.26343 4.53437 8.73227 4.06553C9.20111 3.59668 9.837 3.33329 10.5 3.33329C11.1631 3.33329 11.799 3.59668 12.2678 4.06553C12.7366 4.53437 13 5.17025 13 5.83329V7.49996H8.00004V5.83329ZM15.5 15.8333C15.5 16.0543 15.4122 16.2663 15.256 16.4225C15.0997 16.5788 14.8877 16.6666 14.6667 16.6666H6.33337C6.11236 16.6666 5.9004 16.5788 5.74412 16.4225C5.58784 16.2663 5.50004 16.0543 5.50004 15.8333V9.99996C5.50004 9.77894 5.58784 9.56698 5.74412 9.4107C5.9004 9.25442 6.11236 9.16662 6.33337 9.16662H14.6667C14.8877 9.16662 15.0997 9.25442 15.256 9.4107C15.4122 9.56698 15.5 9.77894 15.5 9.99996V15.8333Z" fill="#888888"/>
</svg>
