<svg width="265" height="223" viewBox="0 0 265 223" fill="none" xmlns="http://www.w3.org/2000/svg">
<g clip-path="url(#clip0_52_251)">
<path d="M49.4928 107.632C49.4928 110.762 49.6244 113.861 49.8876 116.927C50.0947 119.321 50.3775 121.693 50.7358 124.044C51.1166 126.532 51.5832 128.991 52.1356 131.42V131.423C52.4968 133.022 52.8934 134.607 53.3254 136.18C54.5791 140.751 56.1383 145.233 57.9923 149.595C58.3955 150.544 58.8117 151.487 59.2409 152.423C60.8653 155.968 62.6841 159.42 64.6889 162.764C70.3115 172.156 77.3301 180.638 85.5037 187.919C86.3884 188.705 87.2852 189.479 88.1941 190.24C107.493 206.361 131.85 215.175 156.996 215.136C216.37 215.136 264.5 167.006 264.5 107.632C264.5 48.2592 216.37 0.128917 156.996 0.128917C132.716 0.0906328 109.144 8.30924 90.151 23.4354C89.2607 24.1408 88.3817 24.8622 87.5138 25.5994C83.2787 29.1912 79.3262 33.1035 75.6912 37.3016H75.6884C58.7582 56.8176 49.4545 81.7964 49.4928 107.632Z" fill="#F2F2F2"/>
<path d="M232.765 126.202C243.006 120.107 250.736 108.716 249.732 96.8409C240.369 105.802 228.139 111.162 215.204 111.974C210.215 112.269 204.635 112.077 200.962 115.467C198.676 117.577 197.613 120.752 197.438 123.857C197.264 126.962 197.886 130.051 198.504 133.099L198.291 133.845C210.209 133.89 222.524 132.298 232.765 126.202Z" fill="#E6E6E6"/>
<path d="M249.482 96.8283C245.379 105.799 238.554 113.248 229.975 118.119C228.131 119.151 226.171 120.037 224.087 120.449C222.054 120.834 219.954 120.668 218.006 119.967C216.176 119.35 214.377 118.507 212.429 118.346C210.377 118.175 208.476 118.967 206.983 120.354C205.157 122.051 204.049 124.304 203.042 126.544C201.924 129.031 200.802 131.632 198.658 133.421C198.398 133.638 198.75 134.028 199.009 133.812C202.739 130.7 203.347 125.488 206.329 121.823C207.72 120.113 209.635 118.811 211.91 118.846C213.899 118.876 215.756 119.743 217.603 120.384C219.542 121.057 221.484 121.373 223.531 121.077C225.626 120.774 227.625 119.962 229.487 118.982C233.694 116.726 237.52 113.824 240.825 110.38C244.619 106.471 247.716 101.942 249.983 96.9884C250.123 96.6818 249.622 96.5236 249.482 96.8283Z" fill="white"/>
<path d="M232.83 116.713C233.842 118.041 235.294 118.966 236.926 119.323C238.557 119.68 240.263 119.445 241.737 118.66C242.035 118.501 241.801 118.03 241.503 118.19C240.131 118.923 238.542 119.142 237.024 118.807C235.505 118.471 234.156 117.604 233.221 116.362C233.017 116.092 232.627 116.445 232.83 116.713Z" fill="white"/>
<path d="M218.892 120.402C219.318 117.014 221.005 113.912 223.617 111.713C223.876 111.496 223.525 111.105 223.266 111.322C220.552 113.616 218.803 116.848 218.367 120.374C218.326 120.71 218.851 120.736 218.892 120.402Z" fill="white"/>
<path d="M243.968 106.225C243.469 105.793 243.085 105.243 242.851 104.626C242.617 104.009 242.54 103.343 242.627 102.689C242.672 102.353 242.147 102.327 242.102 102.661C242.01 103.384 242.096 104.119 242.353 104.802C242.61 105.484 243.03 106.093 243.577 106.576C243.625 106.626 243.69 106.655 243.758 106.659C243.827 106.663 243.895 106.64 243.948 106.596C243.999 106.549 244.03 106.484 244.034 106.414C244.038 106.345 244.014 106.277 243.968 106.225Z" fill="white"/>
<path d="M216.583 73.8347C216.548 74.0434 216.514 74.252 216.476 74.4626C215.999 77.2652 215.295 80.0245 214.371 82.7131C214.303 82.9221 214.231 83.1329 214.157 83.3395C211.862 89.7933 208.39 95.7651 203.915 100.951C202.133 103.013 200.196 104.937 198.122 106.705C195.257 109.147 191.957 111.566 190.12 114.719C189.925 115.046 189.75 115.384 189.596 115.733L197.397 133.528C197.435 133.559 197.469 133.593 197.507 133.625L197.786 134.349C197.9 134.266 198.015 134.176 198.129 134.093C198.195 134.044 198.259 133.992 198.325 133.944C198.368 133.91 198.412 133.877 198.453 133.849C198.467 133.838 198.482 133.827 198.492 133.817C198.533 133.79 198.568 133.76 198.605 133.734C199.254 133.236 199.9 132.734 200.544 132.226C200.548 132.224 200.548 132.224 200.55 132.218C205.445 128.335 210.058 124.008 213.869 119.119C213.983 118.972 214.102 118.823 214.213 118.668C215.918 116.455 217.44 114.106 218.763 111.645C219.482 110.295 220.134 108.909 220.713 107.493C222.204 103.832 223.11 99.9593 223.398 96.0167C223.97 88.1569 222.021 80.2018 216.973 74.2831C216.844 74.1318 216.716 73.9843 216.583 73.8347Z" fill="#E6E6E6"/>
<path d="M216.374 73.9737C218.499 83.6066 217.534 93.664 213.617 102.717C212.767 104.652 211.735 106.54 210.319 108.123C208.927 109.655 207.15 110.787 205.173 111.4C203.341 112.008 201.397 112.419 199.745 113.463C198.003 114.563 196.963 116.339 196.606 118.345C196.169 120.8 196.64 123.266 197.185 125.661C197.79 128.32 198.46 131.072 197.825 133.791C197.748 134.12 198.264 134.22 198.341 133.891C199.445 129.161 196.793 124.633 196.967 119.912C197.048 117.709 197.794 115.517 199.631 114.175C201.237 113.001 203.242 112.576 205.102 111.975C207.056 111.345 208.797 110.428 210.253 108.959C211.743 107.456 212.851 105.604 213.747 103.7C215.748 99.3669 217.056 94.746 217.621 90.0066C218.297 84.6012 218.043 79.1201 216.87 73.8003C216.798 73.4711 216.302 73.6466 216.374 73.9737Z" fill="white"/>
<path d="M215.05 99.8764C216.659 100.327 218.375 100.192 219.892 99.4945C221.41 98.797 222.63 97.5827 223.335 96.0685C223.477 95.7617 223.006 95.5272 222.865 95.8345C222.211 97.2457 221.074 98.3767 219.659 99.0233C218.245 99.67 216.646 99.7897 215.151 99.3609C214.826 99.2681 214.727 99.7842 215.05 99.8764Z" fill="white"/>
<path d="M206.143 111.213C204.443 108.252 203.923 104.759 204.684 101.431C204.76 101.101 204.245 101.001 204.169 101.33C203.383 104.795 203.932 108.429 205.707 111.507C205.876 111.8 206.311 111.505 206.143 111.213Z" fill="white"/>
<path d="M217.629 84.7965C216.97 84.7517 216.333 84.544 215.774 84.1921C215.216 83.8402 214.754 83.355 214.429 82.7803C214.263 82.485 213.829 82.7804 213.993 83.0737C214.355 83.707 214.866 84.2422 215.482 84.6324C216.098 85.0226 216.801 85.2559 217.528 85.3121C217.596 85.3231 217.666 85.3078 217.723 85.2693C217.78 85.2307 217.821 85.1718 217.836 85.1046C217.849 85.0363 217.835 84.9656 217.796 84.9079C217.757 84.8502 217.697 84.8102 217.629 84.7965Z" fill="white"/>
<path d="M190.031 25.0451L176.873 179.075L203.189 181.054V27.0048C200.054 24.9298 195.552 24.6052 190.031 25.0451Z" fill="#CCCCCC"/>
<path d="M125.081 25.0451L138.239 179.075L111.923 181.054V27.0048C115.059 24.9298 119.56 24.6052 125.081 25.0451Z" fill="#CCCCCC"/>
<path d="M115.864 187.42H199.529C200.871 187.419 202.157 186.885 203.105 185.936C204.054 184.988 204.588 183.702 204.589 182.36V29.2653C204.588 27.9238 204.054 26.6376 203.105 25.689C202.157 24.7403 200.871 24.2067 199.529 24.2052H115.864C114.522 24.2067 113.236 24.7403 112.287 25.689C111.339 26.6376 110.805 27.9238 110.803 29.2653V182.36C110.805 183.702 111.339 184.988 112.287 185.936C113.236 186.885 114.522 187.419 115.864 187.42ZM199.529 25.8849C200.425 25.8859 201.284 26.2424 201.918 26.8761C202.552 27.5099 202.908 28.3691 202.909 29.2653V182.36C202.908 183.256 202.552 184.116 201.918 184.749C201.284 185.383 200.425 185.74 199.529 185.741H115.864C114.967 185.74 114.108 185.383 113.474 184.749C112.841 184.116 112.484 183.256 112.483 182.36V29.2653C112.484 28.3691 112.841 27.5099 113.474 26.8761C114.108 26.2424 114.967 25.8859 115.864 25.8849L199.529 25.8849Z" fill="#CCCCCC"/>
<path d="M111.643 49.6814H203.749V51.3611H111.643V49.6814Z" fill="#CCCCCC"/>
<path d="M111.643 77.6771H203.749V79.3569H111.643V77.6771Z" fill="#CCCCCC"/>
<path d="M173.86 25.045H175.54V101.473H173.86V25.045Z" fill="#CCCCCC"/>
<path d="M139.853 25.045H141.533V101.473H139.853V25.045Z" fill="#CCCCCC"/>
<path d="M101.145 192.04H211.448C213.453 192.04 215.375 191.243 216.793 189.826C218.211 188.408 219.007 186.485 219.007 184.481C219.007 182.476 218.211 180.553 216.793 179.136C215.375 177.718 213.453 176.922 211.448 176.922H101.145C99.1402 176.922 97.2176 177.718 95.8 179.136C94.3825 180.553 93.5861 182.476 93.5861 184.481C93.5861 186.485 94.3825 188.408 95.8 189.826C97.2176 191.243 99.1402 192.04 101.145 192.04Z" fill="#CCCCCC"/>
<path d="M111.643 97.5541H203.189V103.153H111.643V97.5541Z" fill="#CCCCCC"/>
<path d="M173.599 115.374L173.716 115.317C179.956 112.303 188.129 112.305 200.214 115.327L200.343 115.36L200.382 115.232C201.661 111.04 203.109 106.292 200.388 103.956C200.35 97.1011 194.337 91.5349 186.951 91.5349C179.567 91.5349 173.555 97.0982 173.515 103.951C169.467 107.046 171.396 111.619 173.534 115.262L173.599 115.374Z" fill="#2F2E41"/>
<path d="M135.242 100.695C135.354 101.251 135.586 101.775 135.923 102.231C136.259 102.687 136.691 103.064 137.189 103.334C137.687 103.605 138.238 103.764 138.803 103.798C139.369 103.833 139.935 103.744 140.462 103.536L162.517 125.699L164.484 118.817L142.58 98.236C142.173 97.3735 141.463 96.6905 140.585 96.3164C139.708 95.9423 138.723 95.9031 137.819 96.2062C136.914 96.5094 136.152 97.1338 135.677 97.9611C135.202 98.7885 135.048 99.7613 135.242 100.695Z" fill="#FFB6B6"/>
<path d="M189.749 122.031C189.749 122.031 191.75 126.566 186.813 129.362C181.876 132.158 164.62 128.295 161.82 127.756C159.02 127.216 148.563 111.566 148.563 111.566L150.041 103.891L163.91 115.931L189.749 122.031Z" fill="#FEEE74"/>
<path d="M193.391 147.107L193.111 152.426C193.111 152.426 193.937 157.138 193.258 158.154C192.583 159.166 174.178 159.294 174.178 159.294C174.178 159.294 172.962 152.738 171.915 147L193.391 147.107Z" fill="#FFB6B6"/>
<path d="M140.475 217.438L136.627 216.66L137.729 201.119L143.407 202.266L140.475 217.438Z" fill="#FFB6B6"/>
<path d="M134.963 197.213L131.386 195.604L136.027 180.734L141.306 183.108L134.963 197.213Z" fill="#FFB6B6"/>
<path d="M131.848 188.834L138.583 192.648L155.193 165.956C166.854 173.812 178.257 177.574 189.751 179.582C193.638 180.274 197.6 179.923 198.346 175.967C198.381 175.782 198.409 175.596 198.43 175.409C198.889 171.089 193.514 165.551 192.831 160.265L178.122 159.382L176.308 161.707L159.297 151.249C155.877 149.146 151.377 150.283 149.248 153.79C149.135 153.975 149.031 154.165 148.935 154.359L131.848 188.834Z" fill="#2F2E41"/>
<path d="M135.97 206.79L143.677 207.506L157.65 178.928C171.507 181.311 184.579 182.074 195.886 179.191C199.715 178.229 202.055 174.276 201.113 170.362C201.069 170.179 201.018 169.998 200.961 169.819C199.607 165.69 196.065 162.769 193.274 158.228L172.889 158.537L175.165 166.394L155.362 163.831C151.38 163.316 147.743 166.198 147.239 170.27C147.212 170.485 147.195 170.7 147.186 170.917L135.97 206.79Z" fill="#2F2E41"/>
<path d="M185.431 111.31C180.859 111.31 177.153 107.604 177.153 103.033C177.153 98.4611 180.859 94.755 185.431 94.755C190.003 94.755 193.709 98.4611 193.709 103.033C193.709 107.604 190.003 111.31 185.431 111.31Z" fill="#FFB6B6"/>
<path d="M190.284 114.299L182.694 115.192C182.374 115.229 182.074 115.366 181.835 115.582C181.596 115.799 181.431 116.084 181.362 116.399L180.155 121.922L172.631 130.783C172.631 130.783 169.929 135.849 170.942 141.591C171.955 147.332 172.4 151.599 172.4 151.599C172.4 151.599 192.584 159.166 193.26 158.153C193.935 157.14 194.154 152.538 194.154 152.538L196.856 122.479C196.856 122.479 193.817 117.413 192.128 117.413C191.038 117.376 191.178 114.923 190.284 114.299Z" fill="#FEEE74"/>
<path d="M172.195 153.447C171.131 153.447 170.268 152.411 170.268 151.134C170.268 149.857 171.131 148.822 172.195 148.822C173.259 148.822 174.122 149.857 174.122 151.134C174.122 152.411 173.259 153.447 172.195 153.447Z" fill="#FEEE74"/>
<path d="M142.384 213.436L136.518 210.496L135.413 213.075L127.995 214.575C127.628 214.649 127.295 214.838 127.044 215.115C126.793 215.392 126.637 215.741 126.598 216.113C126.56 216.485 126.641 216.859 126.831 217.182C127.02 217.504 127.308 217.757 127.651 217.904L134.819 220.977L137.148 218.955L136.536 221.713L139.239 222.871L142.384 213.436Z" fill="#2F2E41"/>
<path d="M136.642 195.975L130.829 192.933L129.678 195.492L122.235 196.861C121.867 196.929 121.531 197.112 121.275 197.384C121.019 197.657 120.856 198.004 120.812 198.375C120.767 198.746 120.842 199.121 121.025 199.447C121.209 199.772 121.492 200.031 121.833 200.184L128.945 203.382L131.309 201.401L130.65 204.148L133.331 205.354L136.642 195.975Z" fill="#2F2E41"/>
<path d="M190.16 100.436C192.347 100.44 194.482 99.7664 196.271 98.5085L196.33 98.4667V98.3938C196.328 96.2785 195.487 94.2504 193.991 92.7546C192.495 91.2588 190.467 90.4174 188.352 90.415H184.992C182.877 90.4174 180.849 91.2588 179.353 92.7546C177.857 94.2504 177.016 96.2785 177.013 98.3938C177.016 98.878 177.207 99.3421 177.546 99.6874C177.886 100.033 178.346 100.232 178.83 100.243L189.972 100.435C190.035 100.436 190.098 100.436 190.16 100.436Z" fill="#2F2E41"/>
<path d="M176.453 96.8615C175.382 96.2431 175.203 94.5477 176.054 93.0748C176.904 91.6018 178.462 90.9092 179.533 91.5276C180.604 92.1461 180.783 93.8415 179.933 95.3144C179.082 96.7873 177.525 97.48 176.453 96.8615Z" fill="#2F2E41"/>
<path d="M193.207 95.2183C192.004 94.0157 191.738 92.3317 192.613 91.4571C193.488 90.5824 195.172 90.8483 196.374 92.051C197.577 93.2536 197.843 94.9376 196.968 95.8122C196.094 96.6868 194.41 96.4209 193.207 95.2183Z" fill="#2F2E41"/>
<path d="M119.947 170.903H128.21C128.396 170.902 128.58 170.943 128.749 171.021C128.919 171.099 129.069 171.213 129.189 171.356C129.494 171.3 129.808 171.317 130.104 171.405C130.401 171.494 130.673 171.652 130.897 171.866C131.121 172.08 131.291 172.344 131.393 172.637C131.495 172.929 131.527 173.242 131.485 173.549C131.442 173.856 131.328 174.148 131.151 174.403C130.974 174.657 130.739 174.866 130.466 175.011C130.192 175.157 129.888 175.236 129.579 175.242C129.269 175.247 128.962 175.179 128.684 175.044L127.998 177.27C127.917 177.534 127.753 177.765 127.531 177.929C127.309 178.093 127.04 178.182 126.764 178.182H121.393C121.116 178.182 120.848 178.093 120.626 177.929C120.403 177.765 120.24 177.534 120.159 177.27L118.713 172.574C118.654 172.38 118.641 172.176 118.675 171.977C118.709 171.778 118.789 171.589 118.909 171.427C119.029 171.264 119.185 171.132 119.366 171.041C119.546 170.95 119.745 170.903 119.947 170.903ZM129.538 174.682C129.909 174.682 130.265 174.535 130.527 174.272C130.79 174.01 130.937 173.654 130.937 173.282C130.937 172.911 130.79 172.555 130.527 172.293C130.265 172.03 129.909 171.883 129.538 171.883C129.512 171.883 129.488 171.889 129.463 171.89C129.519 172.116 129.512 172.352 129.443 172.574L128.852 174.495C129.061 174.616 129.297 174.681 129.538 174.682Z" fill="#3F3D56"/>
<path d="M156.842 164.826C157.406 164.878 157.975 164.806 158.508 164.614C159.041 164.423 159.526 164.117 159.929 163.718C160.331 163.319 160.641 162.836 160.836 162.305C161.032 161.773 161.109 161.205 161.061 160.64L188.62 145.872L182.592 142.012L156.591 157.09C155.648 157.233 154.79 157.717 154.18 158.451C153.57 159.184 153.25 160.116 153.281 161.069C153.312 162.023 153.691 162.932 154.348 163.624C155.004 164.316 155.891 164.744 156.842 164.826Z" fill="#FFB6B6"/>
<path d="M192.92 118.732C192.92 118.732 197.838 118.116 199.1 123.648C200.362 129.18 191.71 144.602 190.39 147.129C189.07 149.657 171.078 155.184 171.078 155.184L164.15 151.566L179.662 141.734L192.92 118.732Z" fill="#FEEE74"/>
<path d="M158.256 95.8743H156.576C155.76 95.8743 154.976 96.1987 154.399 96.7762C153.821 97.3538 153.497 98.1371 153.497 98.9538H161.336C161.336 98.1371 161.011 97.3538 160.434 96.7762C159.856 96.1987 159.073 95.8743 158.256 95.8743Z" fill="#CCCCCC"/>
<path d="M211.52 38.4174C202.33 38.4174 194.879 30.9669 194.879 21.7762C194.879 12.5855 202.33 5.13501 211.52 5.13501C220.711 5.13501 228.162 12.5855 228.162 21.7762C228.162 30.9669 220.711 38.4174 211.52 38.4174Z" fill="#FF6584"/>
<path d="M160.569 20.909C164.973 16.289 170.088 12.0744 176.143 9.84723C177.83 9.22421 179.579 8.78472 181.359 8.53638C181.374 8.53442 181.387 8.53732 181.402 8.53617C181.431 8.5287 181.46 8.52294 181.49 8.5189C183.98 8.2016 186.508 8.35423 188.943 8.96885C190.133 9.26759 191.294 9.67217 192.413 10.1778C193.535 10.7253 194.623 11.3416 195.669 12.0232C197.884 13.349 200.323 14.2587 202.865 14.7075C204.141 14.9373 205.433 15.0641 206.729 15.0869C207.854 15.1094 208.915 15.1485 209.981 15.5549C211.119 15.9829 212.142 16.6711 212.967 17.5646C213.792 18.458 214.397 19.532 214.733 20.7007C214.759 20.8048 214.751 20.9145 214.711 21.0138C214.67 21.1132 214.599 21.1971 214.508 21.2535C214.22 21.46 213.939 21.6942 213.636 21.8781C213.367 22.0015 213.079 22.08 212.784 22.1105C212.303 22.2121 211.82 22.3108 211.338 22.4064C209.559 22.7588 207.773 23.0707 205.98 23.3422C202.351 23.8915 198.703 24.2785 195.035 24.503C187.687 24.9481 180.315 24.7265 173.007 23.841C168.9 23.3435 164.821 22.638 160.785 21.7271C160.703 21.7032 160.629 21.6586 160.57 21.5976C160.511 21.5367 160.468 21.4614 160.446 21.3791C160.424 21.2968 160.424 21.2102 160.446 21.1279C160.467 21.0455 160.51 20.9701 160.569 20.909Z" fill="#E6E6E6"/>
<path d="M210.731 32.0355C212.417 31.4124 214.166 30.973 215.947 30.7246C215.961 30.7227 215.975 30.7256 215.989 30.7244C216.018 30.7169 216.047 30.7112 216.077 30.7071C218.568 30.3898 221.096 30.5425 223.53 31.1571C224.721 31.4558 225.882 31.8604 227 32.366C228.123 32.9135 229.21 33.5298 230.257 34.2114C232.472 35.5372 234.91 36.447 237.452 36.8958C238.728 37.1255 240.021 37.2523 241.317 37.2751C242.442 37.2977 243.502 37.3367 244.568 37.7431C245.707 38.1712 246.729 38.8594 247.554 39.7528C248.379 40.6463 248.984 41.7202 249.321 42.889C249.347 42.993 249.339 43.1027 249.298 43.202C249.258 43.3014 249.187 43.3853 249.096 43.4417C248.807 43.6482 248.526 43.8824 248.224 44.0663C247.954 44.1897 247.666 44.2682 247.372 44.2987C246.89 44.4003 246.408 44.499 245.925 44.5946C244.147 44.947 242.361 45.2589 240.567 45.5304C236.939 46.0797 233.291 46.4667 229.623 46.6912C222.275 47.1363 214.902 46.9147 207.594 46.0292C203.487 45.5317 199.408 44.8262 195.373 43.9153C195.291 43.8914 195.217 43.8468 195.157 43.7858C195.098 43.7249 195.055 43.6496 195.034 43.5673C195.012 43.485 195.012 43.3984 195.033 43.3161C195.055 43.2337 195.097 43.1584 195.157 43.0972C199.561 38.4773 204.676 34.2626 210.731 32.0355Z" fill="#E6E6E6"/>
<path d="M90.7241 156.093L103.522 139.281L113.619 144.991L92.2216 170.4L90.7241 156.093Z" fill="#3F3D56"/>
<path d="M61.2454 128.764C60.9611 135.809 59.8696 142.799 57.9923 149.595C58.3954 150.544 58.8116 151.487 59.2409 152.423C60.8652 155.968 62.684 159.42 64.6888 162.765C70.3115 172.156 77.33 180.638 85.5037 187.919C86.3883 188.705 87.2851 189.479 88.1941 190.24C93.3761 183.095 96.1728 175.211 97.2787 167.098C97.4186 166.068 97.5334 165.027 97.6202 163.991V163.985C97.8325 161.468 97.9008 158.94 97.8246 156.415C97.8218 156.214 97.8162 156.009 97.8078 155.805C97.7098 153.106 97.4662 150.402 97.0995 147.722V147.72C97.0575 147.412 97.0155 147.104 96.9679 146.796C96.8335 145.872 96.6824 144.948 96.5172 144.03C95.5559 138.734 94.2142 133.514 92.5026 128.411V128.408C92.455 128.26 92.4074 128.114 92.3542 127.969C92.1694 127.414 91.9819 126.866 91.7887 126.317C91.7767 126.274 91.7617 126.232 91.7439 126.191C91.4948 125.474 91.24 124.763 90.9796 124.058C90.9096 123.862 90.8368 123.666 90.7612 123.47C90.4673 122.683 90.1677 121.902 89.8626 121.132C89.7674 120.886 89.6694 120.639 89.5714 120.396C89.4958 120.208 89.4231 120.021 89.3447 119.836V119.833C88.8995 118.733 88.4488 117.654 87.9925 116.597C86.7131 113.624 85.3973 110.827 84.1151 108.248L84.1123 108.246C78.7903 97.5709 73.9526 90.6392 73.9526 90.6392L55.7862 96.5183C57.9531 100.362 59.63 106.031 60.5483 112.719C61.2558 118.035 61.489 123.404 61.2454 128.761L61.2454 128.764Z" fill="#3F3D56"/>
<path d="M91.4389 127.053C91.5452 126.804 91.6656 126.56 91.7888 126.317C92.4274 125.08 93.2496 123.948 94.2272 122.957C94.3728 122.809 94.524 122.661 94.6808 122.521C96.3671 120.967 98.4177 119.864 100.643 119.313C102.869 118.762 105.197 118.781 107.413 119.368L107.424 119.374L107.508 119.396L107.489 119.491C107.405 119.935 107.283 120.37 107.125 120.793C107.083 120.908 107.035 121.017 106.988 121.126C106.968 121.177 106.943 121.222 106.92 121.272C106.92 121.272 106.923 121.275 106.918 121.275C106.918 121.278 106.915 121.28 106.915 121.283C106.862 121.387 106.811 121.493 106.755 121.594C106.87 121.485 106.979 121.373 107.086 121.258C107.189 121.152 107.284 121.04 107.38 120.928C107.706 120.547 108.001 120.141 108.261 119.713L108.306 119.637L108.385 119.668C109.441 120.034 110.449 120.527 111.386 121.138L111.487 121.205C112.202 121.674 113.008 121.988 113.853 122.126C114.697 122.264 115.561 122.223 116.389 122.005C117.693 121.669 119.054 121.608 120.383 121.825C121.713 122.042 122.983 122.534 124.113 123.268C124.861 123.756 125.538 124.346 126.123 125.021C126.173 125.079 126.224 125.141 126.274 125.2C126.38 125.329 126.481 125.46 126.579 125.595C127.631 127.001 128.277 128.67 128.446 130.418L128.452 130.483L128.399 130.519C127.452 131.168 126.38 131.614 125.252 131.829C125.961 131.928 126.678 131.946 127.391 131.882H127.394C127.717 131.856 128.039 131.811 128.357 131.748L128.416 131.737H128.418L128.491 131.723L128.48 131.857C128.396 133.568 127.858 135.225 126.921 136.658L126.893 136.698C126.882 136.712 126.873 136.727 126.865 136.742C126.467 137.35 126.137 137.999 125.879 138.677C125.225 140.363 125.081 142.204 125.465 143.971C125.9 145.861 125.755 147.838 125.05 149.645C124.345 151.452 123.112 153.004 121.512 154.1C120.106 155.067 118.468 155.642 116.767 155.766C116.534 155.785 116.299 155.796 116.064 155.796C114.718 155.8 113.386 155.523 112.153 154.982L112.108 154.965L112.097 154.914C111.86 154.149 111.527 153.418 111.106 152.736C111.244 153.273 111.313 153.825 111.313 154.38V154.565L111.153 154.472C111.016 154.391 110.876 154.304 110.75 154.223C109.994 153.729 109.309 153.134 108.715 152.454C108.483 152.185 108.248 151.925 108.001 151.664L107.998 151.661C107.52 151.152 107.013 150.654 106.487 150.178C105.367 149.172 104.169 148.257 102.903 147.442C101.639 146.63 100.316 145.912 98.9473 145.292H98.9445C98.7906 145.22 98.6338 145.15 98.4798 145.082C97.798 144.786 97.1417 144.433 96.5173 144.03C96.4949 144.016 96.4753 144.005 96.4557 143.991C93.7494 142.219 91.7597 139.544 90.841 136.442C89.9223 133.34 90.1341 130.013 91.4389 127.053Z" fill="#FEEE74"/>
<path opacity="0.15" d="M125.004 147.946C125.08 148.286 125.138 148.631 125.177 148.977C125.698 147.33 125.774 145.574 125.396 143.889C125.338 143.631 125.294 143.37 125.26 143.107C124.742 144.668 124.654 146.339 125.004 147.946Z" fill="black"/>
<path opacity="0.15" d="M124.792 135.802C125.621 135.917 126.462 135.921 127.292 135.814C127.51 135.404 127.698 134.979 127.854 134.542C126.93 135.165 125.888 135.594 124.792 135.802Z" fill="black"/>
<path opacity="0.15" d="M127.359 131.792C127.665 132.575 127.868 133.394 127.964 134.23C128.219 133.434 128.37 132.609 128.412 131.775L128.419 131.64L128.287 131.666C127.98 131.724 127.67 131.766 127.359 131.792Z" fill="black"/>
<path opacity="0.15" d="M124.04 123.185C122.912 122.45 121.643 121.957 120.314 121.74C118.985 121.522 117.625 121.584 116.321 121.921C115.493 122.14 114.628 122.181 113.783 122.044C112.938 121.906 112.132 121.592 111.416 121.121L111.315 121.055C110.379 120.443 109.372 119.948 108.316 119.581L108.235 119.554L108.191 119.626C107.773 120.317 107.267 120.95 106.686 121.509C107.039 120.851 107.286 120.142 107.419 119.407L107.438 119.31L107.342 119.284C105.264 118.734 103.084 118.683 100.982 119.136C98.8804 119.588 96.9151 120.531 95.2469 121.888C93.5787 123.244 92.2548 124.976 91.3834 126.942C90.5119 128.907 90.1175 131.051 90.2323 133.198C90.6731 131.448 91.4571 129.802 92.5385 128.357C93.62 126.912 94.9776 125.695 96.5326 124.779C98.0876 123.862 99.809 123.263 101.597 123.016C103.385 122.769 105.205 122.88 106.95 123.342L107.045 123.367L107.026 123.464C106.894 124.199 106.647 124.909 106.293 125.567C106.875 125.007 107.381 124.374 107.799 123.684L107.843 123.611L107.923 123.639C108.979 124.006 109.987 124.5 110.923 125.112L111.024 125.179C111.739 125.649 112.546 125.963 113.391 126.101C114.236 126.239 115.101 126.197 115.929 125.978C118.096 125.416 120.391 125.623 122.423 126.563C124.455 127.504 126.097 129.12 127.071 131.137C127.504 130.928 127.924 130.694 128.329 130.434L128.384 130.399L128.377 130.335C128.238 128.894 127.776 127.503 127.025 126.265C126.274 125.027 125.254 123.974 124.04 123.185Z" fill="black"/>
<path d="M19.9629 51.6523L20.2289 51.4759L20.422 51.7279C21.917 53.6101 23.1065 55.716 23.9467 57.9681C23.8308 55.3736 23.3771 52.8053 22.5973 50.3281L22.5133 50.0677L22.7541 49.9305C25.8865 48.1568 29.2241 46.7729 32.6926 45.8096L33.0705 45.7088C35.7288 44.9794 38.2034 43.6979 40.3331 41.9478C42.4629 40.1977 44.1998 38.0184 45.4306 35.5519C48.2909 29.8914 52.8094 25.2377 58.3833 22.2119C63.9571 19.1861 70.3212 17.9322 76.6262 18.6173H76.629C76.6962 18.6229 76.7662 18.6313 76.8334 18.6397C76.9482 18.6509 77.0602 18.6649 77.1722 18.6789C77.4017 18.7097 77.6257 18.7405 77.8497 18.7741C78.04 18.8021 78.2332 18.8329 78.4236 18.8665C78.5244 18.8805 78.6224 18.8973 78.7203 18.9169C78.8183 18.9337 78.9191 18.9505 79.0171 18.9701H79.0199C80.8996 19.3256 82.7422 19.8551 84.5238 20.5518H84.5266V20.5546L84.9774 20.731C85.4421 20.9213 85.9031 21.1229 86.3604 21.3357C86.4639 21.3833 86.5647 21.4337 86.6683 21.4813C86.6963 21.4953 86.7271 21.5093 86.7551 21.5261C87.0491 21.666 87.3402 21.8116 87.6286 21.9656C87.6706 21.9852 87.7126 22.0076 87.7545 22.03L88.0233 22.1728C88.614 22.4919 89.1945 22.8307 89.7646 23.189C89.8122 23.217 89.857 23.245 89.9046 23.2758C89.955 23.3094 90.0082 23.343 90.0586 23.3766C90.0894 23.3934 90.1202 23.4158 90.151 23.4354C90.2378 23.4886 90.3218 23.5445 90.4058 23.6033C90.5737 23.7125 90.7417 23.8245 90.9069 23.9393C91.0776 24.0541 91.2456 24.1745 91.4136 24.2948L91.5816 24.4152L91.5508 24.6224C91.5228 24.7932 91.4976 24.9639 91.4668 25.1319C91.4388 25.2999 91.4108 25.4651 91.38 25.6302C91.3324 25.9074 91.2792 26.1817 91.226 26.4477C91.1896 26.6241 91.156 26.7977 91.1168 26.9684C91.0804 27.1448 91.0412 27.3212 90.9992 27.4975C90.9181 27.8615 90.8313 28.2142 90.7389 28.5614C90.6941 28.735 90.6465 28.9085 90.5961 29.0793C90.5681 29.1829 90.5401 29.2865 90.5093 29.3873C90.4869 29.4572 90.4645 29.5272 90.4421 29.5972C90.4365 29.6196 90.4309 29.6448 90.4225 29.67C90.4163 29.6937 90.4089 29.7171 90.4001 29.74C90.3693 29.8436 90.3386 29.9444 90.3078 30.0424C90.291 30.0955 90.2742 30.1487 90.2546 30.1991C90.2154 30.3195 90.1734 30.4427 90.1314 30.5603C90.0866 30.6947 90.039 30.829 89.9914 30.9606C89.9802 30.9942 89.969 31.025 89.9578 31.0586C89.9494 31.0838 89.941 31.109 89.9298 31.1342C89.9186 31.1622 89.9074 31.193 89.8962 31.221C89.8486 31.347 89.801 31.4757 89.7506 31.6017C89.7338 31.6465 89.717 31.6941 89.6974 31.7389C89.2436 32.8794 88.686 33.9758 88.0317 35.0144C88.7568 34.3929 89.4548 33.7341 90.1258 33.0379C91.1617 31.9615 92.1162 30.8096 92.9813 29.5916C93.0513 29.4964 93.1213 29.3985 93.1857 29.3005C93.3173 29.1129 93.4461 28.9253 93.572 28.735C93.7064 28.539 93.8352 28.3346 93.9612 28.133C94.0452 27.9987 94.1292 27.8615 94.2103 27.7271C94.2915 27.5983 94.3671 27.4723 94.4399 27.3436L94.6583 26.9684H94.6611V26.9712L94.969 27.2736C95.0922 27.394 95.2154 27.5143 95.3358 27.6347C99.0985 31.4206 101.824 36.1109 103.25 41.2546L103.292 41.4086L103.334 41.5682C103.415 41.8537 103.497 42.1309 103.583 42.4137V42.4165C103.667 42.6964 103.757 42.9764 103.852 43.2507C103.939 43.5111 104.028 43.7686 104.124 44.0262C104.154 44.113 104.188 44.1998 104.224 44.2866C104.283 44.4545 104.348 44.6197 104.412 44.7877C104.443 44.8633 104.474 44.9417 104.504 45.0173C104.58 45.202 104.656 45.3868 104.731 45.5688C104.742 45.5968 104.756 45.6276 104.77 45.6556C104.793 45.7116 104.818 45.7675 104.84 45.8207C104.899 45.9551 104.961 46.0923 105.019 46.2267C105.061 46.3135 105.101 46.403 105.14 46.4898C105.157 46.529 105.176 46.5682 105.193 46.6074C105.297 46.8314 105.403 47.0525 105.515 47.2709C105.641 47.5285 105.77 47.7861 105.907 48.038C106.027 48.2732 106.153 48.5027 106.285 48.7323C106.512 49.1382 106.75 49.5414 106.996 49.9333C107.091 50.0845 107.186 50.2357 107.284 50.3869C107.307 50.4232 107.329 50.4596 107.352 50.4932C107.433 50.6248 107.517 50.7508 107.603 50.8796C107.662 50.9664 107.721 51.0532 107.78 51.1371C107.878 51.2883 107.981 51.4339 108.088 51.5767C108.116 51.6215 108.147 51.6635 108.177 51.7055C108.334 51.9238 108.491 52.1366 108.651 52.3494C108.656 52.3521 108.656 52.3549 108.659 52.3577C108.665 52.3577 108.665 52.3605 108.667 52.3633C108.737 52.4557 108.807 52.5481 108.88 52.6377C108.975 52.7693 109.079 52.8981 109.182 53.0241C109.35 53.2368 109.527 53.4524 109.706 53.6624C109.712 53.6679 109.714 53.6735 109.72 53.6763C110.648 54.7662 111.652 55.7879 112.727 56.7335C112.746 56.7503 112.76 56.7671 112.78 56.7811C112.931 56.9127 113.082 57.0442 113.239 57.173C113.303 57.2262 113.368 57.2794 113.432 57.3326C113.539 57.4222 113.648 57.5118 113.754 57.593C113.767 57.6058 113.781 57.6171 113.796 57.6265C113.891 57.7049 113.984 57.7777 114.079 57.8505C114.194 57.9429 114.308 58.0297 114.426 58.1165C114.98 58.5364 115.55 58.933 116.134 59.3063C116.221 59.3651 116.313 59.4239 116.403 59.4799C116.456 59.5135 116.509 59.5471 116.559 59.5751C116.772 59.7066 116.985 59.8354 117.198 59.9586C117.41 60.0846 117.629 60.205 117.844 60.3225C118.306 60.5745 118.763 60.8377 119.208 61.112C119.432 61.252 119.656 61.392 119.877 61.5348C120.756 62.1059 121.602 62.7171 122.416 63.3685C123.23 64.0202 124.01 64.7126 124.754 65.443C124.846 65.5325 124.938 65.6249 125.031 65.7201C125.216 65.9021 125.395 66.0869 125.566 66.2716C125.84 66.5544 126.103 66.8455 126.363 67.1395C127.736 68.6973 128.952 70.3871 129.992 72.1843C130.514 73.0817 130.989 74.0059 131.414 74.9531C131.736 75.6614 132.03 76.3865 132.296 77.12C132.472 77.6099 132.637 78.1045 132.791 78.6037C132.867 78.8529 132.94 79.1049 133.01 79.3568C133.248 80.2107 133.446 81.073 133.609 81.938C133.74 82.6323 133.847 83.3276 133.928 84.0237C133.97 84.3737 134.003 84.7236 134.034 85.0707C134.106 85.924 134.143 86.7781 134.145 87.633C134.15 90.1977 133.838 92.7532 133.217 95.2416C133.08 95.7903 132.928 96.3362 132.76 96.8793C132.676 97.1509 132.587 97.4197 132.497 97.6884C132.271 98.3603 132.02 99.0257 131.744 99.6845C131.579 100.079 131.405 100.471 131.224 100.86C130.067 103.334 128.591 105.646 126.834 107.736C126.545 108.08 126.248 108.419 125.941 108.752C125.938 108.752 125.941 108.755 125.941 108.755C125.179 109.586 124.372 110.375 123.525 111.118H123.522C123.183 111.418 122.839 111.708 122.489 111.989C122.486 111.986 122.486 111.989 122.486 111.989C122.133 112.274 121.778 112.549 121.414 112.815C121.232 112.946 121.047 113.078 120.859 113.209C120.493 113.47 120.119 113.721 119.737 113.962H119.734C119.353 114.209 118.967 114.444 118.575 114.668C117.788 115.119 116.982 115.541 116.153 115.925L116.013 115.989L115.871 115.925C114.542 115.327 113.172 114.825 111.772 114.421C111.464 114.332 111.153 114.251 110.845 114.172C110.067 113.979 109.283 113.817 108.494 113.685C109.263 114.071 110.006 114.508 110.717 114.993C111.268 115.365 111.811 115.771 112.357 116.219C112.539 116.367 112.721 116.521 112.903 116.678L113.357 117.07L112.788 117.257C112.581 117.325 112.374 117.392 112.167 117.453C111.884 117.543 111.604 117.624 111.33 117.7C110.731 117.868 110.128 118.016 109.521 118.145C109.373 118.176 109.227 118.207 109.079 118.237C108.791 118.293 108.499 118.349 108.208 118.4C108.196 118.403 108.184 118.405 108.172 118.405C107.869 118.456 107.564 118.503 107.262 118.545C106.699 118.626 106.137 118.691 105.574 118.738C105.512 118.747 105.451 118.75 105.386 118.752C105.249 118.764 105.115 118.775 104.977 118.783C104.675 118.803 104.37 118.817 104.065 118.828C104.042 118.828 104.023 118.831 104 118.831C103.846 118.836 103.692 118.842 103.539 118.845C103.539 118.845 103.539 118.848 103.536 118.845C103.382 118.848 103.228 118.85 103.074 118.85H102.223C102.063 118.85 101.904 118.853 101.741 118.853C101.517 118.853 101.29 118.856 101.066 118.859C101.008 118.859 100.946 118.862 100.885 118.862C100.526 118.867 100.168 118.876 99.8095 118.884C99.7871 118.884 99.7647 118.887 99.7423 118.887C99.3839 118.898 99.0256 118.909 98.6672 118.926C98.5889 118.929 98.5105 118.932 98.4293 118.937C98.0849 118.951 97.7406 118.968 97.3962 118.988C97.2983 118.993 97.1975 119.002 97.0967 119.007C96.8363 119.021 96.5732 119.038 96.3128 119.058C96.1588 119.066 96.0076 119.077 95.8537 119.091C95.2322 119.139 94.6135 119.192 93.992 119.254C93.7848 119.27 93.5776 119.293 93.3705 119.315C92.8161 119.374 92.26 119.438 91.7019 119.508C91.4528 119.536 91.2036 119.57 90.9544 119.603C90.9264 119.606 90.8984 119.609 90.8704 119.615C90.5625 119.657 90.2573 119.699 89.9494 119.743C89.7478 119.771 89.5462 119.802 89.3447 119.833C89.1375 119.864 88.9303 119.895 88.7232 119.931C88.6112 119.948 88.4992 119.967 88.3844 119.987C88.1157 120.029 87.8441 120.074 87.5726 120.124C87.5481 120.127 87.5238 120.13 87.4998 120.135C86.923 120.236 86.3435 120.343 85.7668 120.457C85.4281 120.522 85.0921 120.589 84.7562 120.659C84.493 120.712 84.2299 120.768 83.9667 120.824C83.9219 120.832 83.8771 120.844 83.8323 120.855C83.8223 120.858 83.812 120.86 83.8015 120.86C83.404 120.947 83.0036 121.037 82.6061 121.132C81.2259 121.451 79.8476 121.806 78.4711 122.196C78.1548 122.283 77.8384 122.375 77.5221 122.467C77.3877 122.507 77.2561 122.546 77.1245 122.585C76.8502 122.666 76.5786 122.747 76.3043 122.834C76.0635 122.907 75.8199 122.983 75.5792 123.061C75.428 123.109 75.2768 123.156 75.1256 123.207C74.8905 123.279 74.6553 123.355 74.4229 123.436C74.2242 123.498 74.0282 123.562 73.8322 123.632C73.5523 123.724 73.2695 123.82 72.9896 123.92C72.9084 123.948 72.8244 123.976 72.7432 124.007C72.4017 124.125 72.0601 124.245 71.7186 124.371C71.3854 124.492 71.0523 124.615 70.7219 124.738C70.4924 124.825 70.2628 124.909 70.036 124.998C69.7813 125.096 69.5265 125.194 69.2745 125.295C68.9106 125.438 68.5438 125.583 68.1799 125.732C67.844 125.866 67.5108 126.003 67.1749 126.146C67.1133 126.171 67.0489 126.196 66.9873 126.224C66.6961 126.345 66.405 126.471 66.1166 126.597C65.929 126.675 65.7443 126.756 65.5595 126.838C64.7532 127.19 63.9479 127.555 63.1435 127.932H63.1407C62.6367 128.17 62.1244 128.397 61.6093 128.613C61.4889 128.663 61.3685 128.713 61.2453 128.761C61.041 128.848 60.8338 128.929 60.6266 129.013C60.4923 129.066 60.3579 129.119 60.2207 129.17C60.0219 129.248 59.8204 129.324 59.6188 129.396C59.406 129.475 59.1961 129.553 58.9805 129.626C58.9049 129.654 58.8293 129.679 58.7509 129.707C58.5018 129.791 58.2526 129.875 58.0006 129.956C57.9754 129.965 57.9502 129.973 57.9222 129.981C57.6591 130.065 57.3959 130.149 57.13 130.228C57.1089 130.236 57.0874 130.242 57.0656 130.247C56.78 130.334 56.4889 130.418 56.2005 130.499C55.775 130.617 55.3466 130.729 54.9183 130.833C54.8399 130.852 54.7615 130.872 54.6831 130.889C54.4536 130.945 54.2268 130.998 53.9973 131.048C53.7537 131.104 53.5073 131.155 53.2638 131.205C53.0174 131.255 52.771 131.306 52.5275 131.35C52.3959 131.376 52.2643 131.401 52.1355 131.423L51.7912 131.482C51.5532 131.524 51.3153 131.56 51.0745 131.6C51.0679 131.599 51.0612 131.6 51.0549 131.602C50.7833 131.644 50.5146 131.684 50.243 131.717C49.9827 131.754 49.7223 131.784 49.462 131.815C49.4088 131.821 49.3528 131.826 49.2968 131.832C49.0812 131.857 48.8656 131.882 48.6501 131.902C48.5885 131.908 48.5269 131.913 48.4653 131.919C48.2525 131.938 48.0398 131.958 47.827 131.972C47.7843 131.978 47.7413 131.98 47.6982 131.98C47.5079 131.997 47.3175 132.011 47.1271 132.02C46.9927 132.031 46.8611 132.036 46.7268 132.045C46.6568 132.048 46.5896 132.05 46.5196 132.053C46.3348 132.064 46.1501 132.07 45.9625 132.076C45.7357 132.084 45.509 132.09 45.285 132.095C45.0134 132.101 44.7391 132.104 44.4675 132.104H44.4619C44.1959 132.104 43.9272 132.101 43.6612 132.095H43.5604L43.2665 132.087C43.1153 132.084 42.9641 132.078 42.8157 132.073C42.5302 132.062 42.2474 132.048 41.9647 132.031C41.8527 132.025 41.7379 132.017 41.6259 132.011C41.5755 132.008 41.5223 132.003 41.4719 132C41.2955 131.989 41.122 131.978 40.9456 131.964C40.7636 131.95 40.5788 131.933 40.3969 131.913C40.1617 131.891 39.9266 131.866 39.6914 131.84C39.5066 131.821 39.3218 131.798 39.1399 131.776C39.1154 131.774 39.0911 131.77 39.0671 131.765C38.8907 131.745 38.7144 131.723 38.5408 131.698C38.3336 131.67 38.1292 131.639 37.9249 131.608C37.9025 131.605 37.8829 131.602 37.8605 131.6C37.5077 131.544 37.1522 131.488 36.7966 131.423C36.4243 131.356 36.0519 131.283 35.6824 131.208C35.5452 131.18 35.4108 131.149 35.2737 131.121C35.1981 131.104 35.1197 131.09 35.0469 131.073C34.9321 131.048 34.8201 131.023 34.7081 130.995C34.6886 130.992 34.6661 130.987 34.6465 130.984C34.4898 130.95 34.3358 130.911 34.179 130.872C33.8655 130.796 33.5575 130.718 33.2496 130.634C33.1124 130.6 32.9752 130.564 32.8436 130.527C32.8044 130.516 32.7653 130.505 32.7289 130.494C32.1606 130.334 31.5969 130.165 31.0379 129.987C30.7915 129.909 30.548 129.828 30.3044 129.741C29.7809 129.562 29.2621 129.373 28.7479 129.175C28.6106 129.125 28.4735 129.069 28.3363 129.016C28.1347 128.934 27.9332 128.853 27.7344 128.772C27.5552 128.697 27.3761 128.621 27.1941 128.543C27.1045 128.506 27.0149 128.467 26.9253 128.428C26.6566 128.31 26.3878 128.19 26.1218 128.069C25.9427 127.985 25.7663 127.904 25.5899 127.82C25.31 127.686 25.0328 127.549 24.7557 127.412C24.6857 127.375 24.6185 127.339 24.5513 127.305C24.3749 127.216 24.1985 127.123 24.0194 127.034C23.7366 126.882 23.4539 126.731 23.1739 126.574C23.0787 126.524 22.9864 126.471 22.8911 126.418C22.5832 126.244 22.278 126.068 21.9757 125.889C21.3066 125.488 20.6469 125.07 19.9964 124.634C19.834 124.528 19.6716 124.416 19.512 124.307C19.2097 124.1 18.913 123.887 18.6162 123.674C18.5854 123.652 18.5574 123.629 18.5266 123.61C18.3782 123.501 18.2299 123.391 18.0815 123.279C17.7735 123.047 17.4684 122.812 17.1632 122.571C17.1576 122.568 17.1492 122.56 17.1408 122.554C17.0036 122.445 16.8665 122.336 16.7321 122.227C16.3149 121.888 15.9034 121.544 15.5003 121.188C15.3015 121.017 15.1055 120.841 14.9124 120.665C14.7668 120.533 14.6212 120.401 14.4784 120.267C14.1901 119.995 13.9073 119.727 13.6274 119.452C13.4874 119.318 13.3502 119.178 13.2103 119.038C13.073 118.898 12.9331 118.758 12.7959 118.615C12.7483 118.568 12.7007 118.517 12.6531 118.467C12.5131 118.319 12.3731 118.167 12.2332 118.019C12.1128 117.89 11.9952 117.756 11.8748 117.621C11.6733 117.397 11.4689 117.173 11.2701 116.947C11.2596 116.934 11.2484 116.922 11.2365 116.91C11.2254 116.896 11.2141 116.885 11.2057 116.874H11.2085C7.13925 112.168 4.11571 106.652 2.33801 100.69C0.560333 94.7286 0.0690155 88.4573 0.896606 82.2915C1.72421 76.1257 3.85182 70.2059 7.13868 64.924C10.4255 59.642 14.7968 55.1183 19.9629 51.6523Z" fill="#FEEE74"/>
<g opacity="0.15">
<path d="M76.6284 18.6151C76.0703 20.6197 75.2307 22.535 74.1347 24.3038C75.9696 22.7275 77.609 20.9371 79.0179 18.9708C78.2265 18.8211 77.43 18.7026 76.6284 18.6151Z" fill="black"/>
<path d="M103.946 49.6167C106.018 50.7475 107.955 52.1094 109.721 53.6761C106.74 50.1509 104.561 46.0194 103.336 41.5682C103.321 41.5147 103.306 41.4609 103.291 41.4073L103.25 41.2558C101.777 35.9432 98.9199 31.117 94.9703 27.2709L94.6597 26.9684L94.4408 27.3423C93.23 29.401 91.7811 31.3101 90.1239 33.0301C92.6632 40.1953 97.6044 46.1587 103.946 49.6167Z" fill="black"/>
<path d="M89.3522 30.5474L89.3939 30.699C89.4083 30.7525 89.4233 30.8064 89.4381 30.8598C89.5199 31.1544 89.6068 31.4468 89.6965 31.7379C90.5821 29.444 91.2041 27.0569 91.5503 24.6225L91.5829 24.4159L91.4131 24.2945C89.2827 22.7637 86.9689 21.5059 84.5258 20.5505C86.7194 23.5675 88.3541 26.9534 89.3522 30.5474Z" fill="black"/>
<path d="M117.843 60.3252C116.01 59.3215 114.293 58.1167 112.726 56.7332C115.857 60.3778 118.101 64.6979 119.282 69.3548C120.464 74.0117 120.551 78.8789 119.537 83.5752C118.523 88.2714 116.435 92.669 113.437 96.4235C110.439 100.178 106.613 103.187 102.257 105.215L102.116 105.281L101.974 105.217C99.622 104.154 97.1416 103.401 94.5953 102.976C96.1846 103.786 97.6661 104.791 99.0049 105.97L99.4579 106.361L98.8897 106.549C98.3992 106.711 97.9086 106.86 97.4318 106.993C94.63 107.773 91.7334 108.161 88.825 108.144C75.6106 108.06 62.2936 111.115 49.2442 117.224C47.0062 118.271 44.685 119.129 42.3046 119.789C31.9308 122.678 20.8562 121.639 11.2006 116.871C16.6443 123.167 23.7623 127.789 31.728 130.201C39.6937 132.613 48.1802 132.716 56.202 130.498C58.5824 129.837 60.9037 128.979 63.1416 127.933C76.191 121.823 89.508 118.768 102.722 118.853C105.631 118.869 108.527 118.482 111.329 117.701C111.806 117.569 112.297 117.42 112.787 117.257L113.355 117.07L112.902 116.678C111.563 115.5 110.082 114.494 108.493 113.685C111.039 114.109 113.519 114.862 115.872 115.925L116.013 115.989L116.155 115.924C121.385 113.489 125.836 109.649 129.011 104.832C132.186 100.016 133.96 94.4113 134.135 88.6449C134.31 82.8785 132.879 77.1768 130.003 72.1762C127.126 67.1755 122.916 63.0726 117.843 60.3252Z" fill="black"/>
</g>
</g>
<defs>
<clipPath id="clip0_52_251">
<rect width="264" height="222.742" fill="white" transform="matrix(-1 0 0 1 264.5 0.128906)"/>
</clipPath>
</defs>
</svg>
