<svg width="21" height="20" viewBox="0 0 21 20" fill="none" xmlns="http://www.w3.org/2000/svg">
<path d="M10.2037 2.5C7.96239 2.50232 5.81349 3.39372 4.2286 4.9786C2.64372 6.56349 1.75232 8.71239 1.75 10.9538C1.75 13.2125 2.62875 15.335 4.225 16.9313C5.00825 17.7189 5.93999 18.3434 6.96627 18.7684C7.99254 19.1935 9.09294 19.4107 10.2037 19.4075C12.4451 19.4052 14.594 18.5138 16.1789 16.9289C17.7638 15.344 18.6552 13.1951 18.6575 10.9538C18.6552 8.71239 17.7638 6.56349 16.1789 4.9786C14.594 3.39372 12.4451 2.50232 10.2037 2.5ZM5.09375 16.8763C5.67803 16.1161 6.42643 15.4977 7.28311 15.0672C8.13978 14.6367 9.08261 14.4052 10.0413 14.39C10.0712 14.3913 10.1 14.3988 10.13 14.3988H10.1588C10.1863 14.3988 10.2113 14.3913 10.2387 14.39C11.2107 14.4065 12.1658 14.6457 13.0309 15.089C13.8959 15.5324 14.6478 16.1682 15.2288 16.9475C13.8232 18.1337 12.043 18.7838 10.2037 18.7825C8.32596 18.7859 6.51056 18.1086 5.09375 16.8763ZM10.1337 13.7588C10.1025 13.7588 10.0725 13.7638 10.0413 13.765C9.31164 13.7403 8.62043 13.432 8.1146 12.9056C7.60876 12.3792 7.32818 11.6763 7.3325 10.9463C7.33381 10.5767 7.40805 10.2111 7.55098 9.8703C7.69391 9.52953 7.90271 9.22032 8.1654 8.96042C8.42809 8.70051 8.7395 8.49503 9.08178 8.35574C9.42406 8.21646 9.79047 8.14612 10.16 8.14875C10.5295 8.15006 10.8952 8.2243 11.2359 8.36723C11.5767 8.51016 11.8859 8.71896 12.1458 8.98165C12.4057 9.24434 12.6112 9.55575 12.7505 9.89803C12.8898 10.2403 12.9601 10.6067 12.9575 10.9763C12.9575 12.4913 11.745 13.7225 10.24 13.7663C10.205 13.765 10.17 13.7588 10.1337 13.7588ZM15.6925 16.5275C14.7259 15.252 13.3511 14.3466 11.7975 13.9625C12.3381 13.6663 12.7891 13.2301 13.1031 12.6996C13.4172 12.1691 13.5828 11.564 13.5825 10.9475C13.581 10.4959 13.4905 10.0491 13.3161 9.63258C13.1417 9.21605 12.8869 8.83801 12.5662 8.5201C12.2455 8.20219 11.8652 7.95066 11.4472 7.77991C11.0292 7.60915 10.5816 7.52253 10.13 7.525C9.67844 7.52647 9.2316 7.617 8.81507 7.79139C8.39855 7.96579 8.02051 8.22063 7.7026 8.54132C7.38469 8.86202 7.13316 9.24227 6.96241 9.6603C6.79165 10.0783 6.70503 10.5259 6.7075 10.9775C6.7098 11.5882 6.87594 12.1871 7.18859 12.7117C7.50124 13.2363 7.94895 13.6674 8.485 13.96C6.95763 14.3352 5.60102 15.2136 4.63375 16.4538C3.18296 14.9925 2.37108 13.0154 2.37625 10.9563C2.37857 8.88065 3.20412 6.89072 4.6718 5.42305C6.13947 3.95537 8.1294 3.12982 10.205 3.1275C12.2806 3.12982 14.2705 3.95537 15.7382 5.42305C17.2059 6.89072 18.0314 8.88065 18.0338 10.9563C18.0332 11.9939 17.8259 13.021 17.4239 13.9775C17.0219 14.9341 16.4333 15.801 15.6925 16.5275Z" fill="#888888"/>
</svg>
