<svg width="35" height="35" viewBox="0 0 35 35" fill="none" xmlns="http://www.w3.org/2000/svg">
<circle cx="17.5" cy="17.5" r="17.5" fill="#FEEE74"/>
<path d="M17 15.9675C17.9126 15.969 18.8051 15.6997 19.5646 15.1938C20.3241 14.6879 20.9165 13.968 21.2667 13.1253C21.617 12.2826 21.7094 11.355 21.5323 10.4597C21.3552 9.56451 20.9165 8.74194 20.2717 8.09612C19.6269 7.4503 18.8051 7.01026 17.9101 6.83167C17.0152 6.65309 16.0874 6.74399 15.2441 7.09288C14.4009 7.44177 13.68 8.03296 13.1729 8.79164C12.6657 9.55033 12.395 10.4424 12.395 11.355C12.395 12.577 12.8799 13.7491 13.7433 14.6139C14.6067 15.4787 15.778 15.9655 17 15.9675ZM17 8.24999C17.6162 8.24851 18.219 8.42998 18.732 8.77141C19.245 9.11285 19.6451 9.59888 19.8816 10.1679C20.1181 10.737 20.1804 11.3634 20.0606 11.9679C19.9407 12.5723 19.6441 13.1276 19.2084 13.5633C18.7726 13.9991 18.2173 14.2957 17.6129 14.4155C17.0084 14.5354 16.382 14.4731 15.8129 14.2366C15.2439 14.0001 14.7579 13.6 14.4164 13.087C14.075 12.574 13.8935 11.9712 13.895 11.355C13.897 10.5321 14.2248 9.74348 14.8066 9.16161C15.3885 8.57974 16.1771 8.25197 17 8.24999ZM25.535 26.1075C24.635 28.425 20.54 29.25 17 29.25C13.46 29.25 9.365 28.425 8.465 26.1075C7.985 24.87 8.4125 23.0325 9.5825 21.315C10.3964 20.0865 11.4969 19.0745 12.7892 18.3663C14.0814 17.6581 15.5266 17.275 17 17.25C18.7389 17.2881 20.4312 17.8194 21.8799 18.782C23.3285 19.7447 24.4738 21.0991 25.1825 22.6875C25.2331 22.7785 25.2642 22.879 25.2738 22.9826C25.2835 23.0863 25.2714 23.1908 25.2385 23.2896C25.2055 23.3883 25.1523 23.4791 25.0824 23.5562C25.0124 23.6333 24.9271 23.6949 24.832 23.7372C24.7369 23.7796 24.634 23.8016 24.5299 23.802C24.4258 23.8024 24.3228 23.7812 24.2274 23.7396C24.1319 23.698 24.0462 23.6369 23.9756 23.5604C23.9051 23.4839 23.8512 23.3935 23.8175 23.295C23.2167 21.978 22.2602 20.8549 21.0558 20.0519C19.8514 19.249 18.4467 18.7981 17 18.75C15.7714 18.7749 14.5673 19.0986 13.4919 19.6932C12.4164 20.2877 11.502 21.1353 10.8275 22.1625C9.8225 23.625 9.62 24.9525 9.86 25.5675C10.355 26.835 13.355 27.75 17 27.75C20.645 27.75 23.645 26.835 24.14 25.5675C24.2212 25.3965 24.3641 25.2626 24.54 25.1926C24.7158 25.1225 24.9116 25.1216 25.0882 25.1899C25.2647 25.2583 25.4088 25.3908 25.4917 25.561C25.5746 25.7312 25.5901 25.9264 25.535 26.1075Z" fill="#A0D6E2"/>
</svg>
